<svg xmlns="http://www.w3.org/2000/svg" viewBox="0 0 960 560" role="img" aria-labelledby="title desc">
  <title id="title">Mooncake Store Quick Start runtime map</title>
  <desc id="desc">Architecture flow showing metadata discovery, RPC control, client API calls, and direct client-to-client data transfer.</desc>
  <style>
    .bg { fill: url(#bg); }
    .panel { fill: #fff; stroke: #d5dde8; stroke-width: 1.2; }
    .stage { fill: #fbfdff; stroke: #e4eaf2; stroke-width: 1.2; }
    .node { fill: rgba(255,255,255,.97); stroke: #d5dde8; stroke-width: 1.2; filter: url(#shadow); }
    .title { fill: #172033; font: 700 18px -apple-system, BlinkMacSystemFont, "Segoe UI", sans-serif; dominant-baseline: middle; }
    .hint { fill: #5f6f86; font: 400 13px -apple-system, BlinkMacSystemFont, "Segoe UI", sans-serif; dominant-baseline: middle; }
    .role { font: 700 11px -apple-system, BlinkMacSystemFont, "Segoe UI", sans-serif; letter-spacing: .8px; dominant-baseline: middle; text-anchor: middle; }
    .node-title { fill: #172033; font: 700 17px -apple-system, BlinkMacSystemFont, "Segoe UI", sans-serif; }
    .node-text { fill: #5f6f86; font: 400 14px -apple-system, BlinkMacSystemFont, "Segoe UI", sans-serif; }
    .line-base, .line-run { fill: none; stroke-linecap: round; stroke-linejoin: round; }
    .line-base { opacity: .28; }
    .line-run { stroke-dasharray: 14 16; animation: flow 1.8s linear infinite; }
    .control { stroke: #2563eb; stroke-width: 3; }
    .metadata { stroke: #c26a13; stroke-width: 3; stroke-dasharray: 8 8; }
    .api { stroke: #7c3aed; stroke-width: 3; }
    .data { stroke: #059669; stroke-width: 5; }
    .legend { fill: #5f6f86; font: 400 13px -apple-system, BlinkMacSystemFont, "Segoe UI", sans-serif; dominant-baseline: middle; }
    @keyframes flow { to { stroke-dashoffset: -60; } }
    @media (prefers-reduced-motion: reduce) { .line-run { animation: none; } }
  </style>

  <defs>
    <linearGradient id="bg" x1="0" y1="0" x2="0" y2="1">
      <stop offset="0" stop-color="#ffffff"/>
      <stop offset="1" stop-color="#f8fafc"/>
    </linearGradient>
    <radialGradient id="warm" cx="20%" cy="25%" r="40%">
      <stop offset="0" stop-color="#c26a13" stop-opacity=".10"/>
      <stop offset="1" stop-color="#c26a13" stop-opacity="0"/>
    </radialGradient>
    <radialGradient id="cool" cx="82%" cy="74%" r="42%">
      <stop offset="0" stop-color="#059669" stop-opacity=".10"/>
      <stop offset="1" stop-color="#059669" stop-opacity="0"/>
    </radialGradient>
    <filter id="shadow" x="-20%" y="-20%" width="140%" height="150%">
      <feDropShadow dx="0" dy="10" stdDeviation="10" flood-color="#0f172a" flood-opacity=".10"/>
    </filter>
    <marker id="arrow-control" viewBox="0 0 10 10" refX="8" refY="5" markerWidth="7" markerHeight="7" orient="auto-start-reverse">
      <path d="M0 0 10 5 0 10z" fill="#2563eb"/>
    </marker>
    <marker id="arrow-metadata" viewBox="0 0 10 10" refX="8" refY="5" markerWidth="7" markerHeight="7" orient="auto">
      <path d="M0 0 10 5 0 10z" fill="#c26a13"/>
    </marker>
    <marker id="arrow-api" viewBox="0 0 10 10" refX="8" refY="5" markerWidth="7" markerHeight="7" orient="auto">
      <path d="M0 0 10 5 0 10z" fill="#7c3aed"/>
    </marker>
    <marker id="arrow-data" viewBox="0 0 10 10" refX="8" refY="5" markerWidth="8" markerHeight="8" orient="auto-start-reverse">
      <path d="M0 0 10 5 0 10z" fill="#059669"/>
    </marker>
  </defs>

  <rect class="panel" x="8" y="8" width="944" height="544" rx="8"/>
  <text class="title" x="28" y="36">Quick Start runtime map</text>
  <text class="hint" x="540" y="36">Control, metadata, and data paths are intentionally separate.</text>

  <rect class="stage" x="28" y="62" width="904" height="414" rx="8"/>
  <rect x="28" y="62" width="904" height="414" rx="8" fill="url(#warm)"/>
  <rect x="28" y="62" width="904" height="414" rx="8" fill="url(#cool)"/>

  <path class="line-base metadata" d="M246 174 C334 198 356 282 420 320" marker-end="url(#arrow-metadata)"/>
  <path class="line-run metadata" d="M246 174 C334 198 356 282 420 320"/>
  <path class="line-base metadata" d="M246 198 C426 224 622 282 754 320" marker-end="url(#arrow-metadata)"/>
  <path class="line-run metadata" d="M246 198 C426 224 622 282 754 320"/>

  <path class="line-base control" d="M488 252 C488 276 488 296 488 315" marker-start="url(#arrow-control)" marker-end="url(#arrow-control)"/>
  <path class="line-run control" d="M488 252 C488 276 488 296 488 315"/>
  <path class="line-base control" d="M570 252 C642 272 760 288 822 315" marker-start="url(#arrow-control)" marker-end="url(#arrow-control)"/>
  <path class="line-run control" d="M570 252 C642 272 760 288 822 315"/>

  <path class="line-base api" d="M246 350 C302 350 352 350 412 350" marker-end="url(#arrow-api)"/>
  <path class="line-run api" d="M246 350 C302 350 352 350 412 350"/>

  <path class="line-base data" d="M608 350 C660 350 705 350 756 350" marker-start="url(#arrow-data)" marker-end="url(#arrow-data)"/>
  <path class="line-run data" d="M608 350 C660 350 705 350 756 350"/>

  <g transform="translate(56 102)">
    <rect class="node" width="196" height="150" rx="8"/>
    <rect x="16" y="20" width="82" height="28" rx="14" fill="#f7eadb"/>
    <text class="role" x="57" y="34" fill="#8a3f00">METADATA</text>
    <text class="node-title" x="16" y="74">Peer discovery</text>
    <text class="node-text" x="16" y="102">P2PHANDSHAKE,</text>
    <text class="node-text" x="16" y="122">embedded HTTP metadata,</text>
    <text class="node-text" x="16" y="142">or external etcd.</text>
  </g>

  <g transform="translate(390 102)">
    <rect class="node" width="196" height="150" rx="8"/>
    <rect x="16" y="20" width="120" height="28" rx="14" fill="#e4ecff"/>
    <text class="role" x="76" y="34" fill="#1d4ed8">CONTROL PLANE</text>
    <text class="node-title" x="16" y="74">mooncake_master</text>
    <text class="node-text" x="16" y="102">Controls membership,</text>
    <text class="node-text" x="16" y="122">placement, eviction,</text>
    <text class="node-text" x="16" y="142">and metrics.</text>
  </g>

  <g transform="translate(56 310)">
    <rect class="node" width="196" height="150" rx="8"/>
    <rect x="16" y="20" width="108" height="28" rx="14" fill="#eee5ff"/>
    <text class="role" x="70" y="34" fill="#6d28d9">APPLICATION</text>
    <text class="node-title" x="16" y="74">Python or service</text>
    <text class="node-title" x="16" y="95">process</text>
    <text class="node-text" x="16" y="123">Calls Put, Get, and</text>
    <text class="node-text" x="16" y="143">Remove through the API.</text>
  </g>

  <g transform="translate(390 310)">
    <rect class="node" width="196" height="150" rx="8"/>
    <rect x="16" y="20" width="104" height="28" rx="14" fill="#ddf5ed"/>
    <text class="role" x="68" y="34" fill="#047857">STORE CLIENT</text>
    <text class="node-title" x="16" y="74">Store Client</text>
    <text class="node-text" x="16" y="102">Registers memory and</text>
    <text class="node-text" x="16" y="122">owns the local Transfer</text>
    <text class="node-text" x="16" y="142">Engine.</text>
  </g>

  <g transform="translate(724 310)">
    <rect class="node" width="196" height="150" rx="8"/>
    <rect x="16" y="20" width="92" height="28" rx="14" fill="#ddf5ed"/>
    <text class="role" x="62" y="34" fill="#047857">PEER CLIENT</text>
    <text class="node-title" x="16" y="74">Other Store Client</text>
    <text class="node-text" x="16" y="102">Sends and receives</text>
    <text class="node-text" x="16" y="122">object data directly</text>
    <text class="node-text" x="16" y="142">when more clients join.</text>
  </g>

  <g transform="translate(28 506)">
    <line x1="0" y1="0" x2="34" y2="0" class="control"/>
    <text class="legend" x="42" y="0">RPC control: registration and placement</text>
    <line x1="318" y1="0" x2="352" y2="0" class="metadata"/>
    <text class="legend" x="360" y="0">Metadata: peer discovery and transfer setup</text>
    <line x1="674" y1="0" x2="708" y2="0" class="api"/>
    <text class="legend" x="716" y="0">Client API: application calls</text>
    <line x1="0" y1="34" x2="34" y2="34" class="data"/>
    <text class="legend" x="42" y="34">Data: direct client-to-client transfer</text>
  </g>
</svg>
